<?xml version="1.0" encoding="iso-8859-1"?>
<!-- Uploaded to: SVG Repo, www.svgrepo.com, Generator: SVG Repo Mixer Tools -->
<svg version="1.1" id="Layer_1" xmlns="http://www.w3.org/2000/svg" xmlns:xlink="http://www.w3.org/1999/xlink" 
	 viewBox="0 0 512 512" xml:space="preserve">
<circle style="fill:#273B7A;" cx="256" cy="256" r="256"/>
<path style="fill:#121149;" d="M258.127,511.974c64.805-0.536,129.446-25.509,178.891-74.955
	c43.108-43.108,67.61-97.766,73.544-154.014L369.778,142.222l-4.501,5.348l-47.447-47.445l-93.351,103.884l-78.01-78.012h-18.113
	v160.958l0.324,0.324l-6.122,89.128L258.127,511.974z"/>
<rect x="331.921" y="142.222" style="fill:#C92F00;" width="37.857" height="202.731"/>
<rect x="350.849" y="142.222" style="fill:#930000;" width="18.928" height="202.731"/>
<rect x="275.032" y="199.111" style="fill:#FF5419;" width="37.857" height="145.842"/>
<rect x="293.96" y="199.111" style="fill:#C92F00;" width="18.93" height="145.842"/>
<rect x="218.143" y="256" style="fill:#E09112;" width="37.857" height="88.955"/>
<rect x="238.192" y="256" style="fill:#FF5419;" width="17.813" height="88.955"/>
<rect x="161.254" y="312.889" style="fill:#F4B04D;" width="37.857" height="32.066"/>
<rect x="180.183" y="312.889" style="fill:#EAA22F;" width="18.928" height="32.066"/>
<path style="fill:#FF5419;" d="M320.526,104.865c-0.138-3.331-2.998-5.911-6.28-5.779l-21.702,0.902
	c-3.331,0.138-5.916,2.95-5.779,6.28c0.138,3.331,2.991,5.891,6.28,5.779l7.149-0.297L156.117,268.335
	c-2.258,2.453-2.098,6.27,0.353,8.525c1.16,1.067,2.624,1.595,4.084,1.595c1.627,0,3.253-0.655,4.441-1.948L309.074,119.92
	l0.297,7.147c0.134,3.244,2.808,5.782,6.023,5.782c0.086,0,0.171-0.002,0.255-0.005c3.331-0.138,5.916-2.95,5.779-6.28
	L320.526,104.865z"/>
<path style="fill:#C92F00;" d="M317.83,100.124L156.184,276.539c0.098,0.105,0.178,0.222,0.286,0.321
	c1.16,1.067,2.624,1.595,4.084,1.595c1.627,0,3.253-0.655,4.441-1.948L309.074,119.92l0.297,7.147
	c0.134,3.244,2.808,5.782,6.023,5.782c0.086,0,0.171-0.002,0.255-0.005c3.331-0.138,5.916-2.95,5.779-6.28l-0.902-21.699
	C320.443,102.871,319.372,101.159,317.83,100.124z"/>
<path style="fill:#FFFFFF;" d="M418.573,367.128l-15.358-15.358c-2.357-2.357-6.175-2.357-8.532,0c-2.357,2.355-2.357,6.177,0,8.532
	l5.825,5.827H132.877V129.47l5.06,5.058c2.357,2.357,6.178,2.357,8.532,0c2.357-2.357,2.357-6.177,0-8.532L131.11,110.64
	c-2.357-2.357-6.175-2.357-8.532,0l-15.358,15.358c-2.357,2.355-2.357,6.177,0,8.532c1.179,1.179,2.722,1.767,4.267,1.767
	c1.545,0,3.088-0.59,4.267-1.767l5.06-5.06v242.69c0,3.332,2.701,6.034,6.034,6.034h272.127l-4.289,4.289
	c-2.357,2.355-2.357,6.175,0,8.532c1.177,1.179,2.722,1.767,4.267,1.767c1.545,0,3.087-0.59,4.267-1.767l15.358-15.357
	c1.131-1.131,1.767-2.665,1.767-4.267C420.34,369.795,419.704,368.259,418.573,367.128z"/>
<path style="fill:#D0D1D3;" d="M418.573,367.128l-15.358-15.358c-2.357-2.357-6.175-2.357-8.532,0c-2.357,2.355-2.357,6.177,0,8.532
	l5.825,5.827H132.877v-0.041l-10.319,10.319c1.093,1.105,2.608,1.789,4.286,1.789H398.97l-4.289,4.289
	c-2.357,2.355-2.357,6.175,0,8.532c1.177,1.179,2.722,1.767,4.267,1.767c1.545,0,3.087-0.59,4.267-1.767l15.358-15.357
	c1.131-1.131,1.767-2.665,1.767-4.267C420.34,369.795,419.704,368.259,418.573,367.128z"/>
</svg>