<?xml version="1.0" encoding="iso-8859-1"?>
<!-- Generator: Adobe Illustrator 19.0.0, SVG Export Plug-In . SVG Version: 6.00 Build 0)  -->
<svg version="1.1" id="Layer_1" xmlns="http://www.w3.org/2000/svg" xmlns:xlink="http://www.w3.org/1999/xlink" x="0px" y="0px"
	 viewBox="0 0 505 505" style="enable-background:new 0 0 505 505;" xml:space="preserve">
<circle style="fill:#84DBFF;" cx="252.5" cy="252.5" r="252.5"/>
<path style="fill:#54C0EB;" d="M54.4,408.9c46.2,58.5,117.8,96.1,198.1,96.1c80.4,0,151.9-37.6,198.1-96.1H54.4z"/>
<g>
	<path style="fill:#F1543F;" d="M426.6,282.8c-9.5,0-18.8-3.6-21.3-4.9c-2.3-1.3-4.2-3.1-5.7-4.6c-0.5-0.5-0.9-0.9-1.4-1.4
		c-5-4.7-11.8-7.4-18.7-7.6c-2.4-0.1-4.4-2.1-4.3-4.5s2-4.2,4.5-4.3c9,0.2,17.9,3.8,24.5,9.9c0.6,0.5,1.1,1,1.6,1.6
		c1.3,1.3,2.5,2.5,3.8,3.2c3.6,2,22.3,8,28.6-0.8c2.7-3.9,2.9-9.8,0.4-13.5c-2.3-3.3-6.6-8.6-10.4-6.5c-3,1.6-4.7,6.6-4,8.4
		c0.4,0.6,2.1,1.8,3.3,2.2c0.1-0.5,0.1-1.4-0.1-2.8c-0.3-2.4,1.4-4.6,3.8-4.9c2.4-0.3,4.6,1.4,4.9,3.8c1.2,9.6-3.7,12-5.9,12.6
		c-5.6,1.5-12.6-3.6-14.3-7.6c-2.6-6.4,1.3-15.9,8-19.5c3.4-1.8,12.4-4.6,21.9,9.3c4.6,6.8,4.4,16.7-0.5,23.6
		C440.8,280.8,433.7,282.8,426.6,282.8z"/>
	<path style="fill:#F1543F;" d="M350.6,337.9h-84.2l25.3,62.6c2,5,7,8.4,12.4,8.4h51c6.8,0,11-5.4,9.4-12L350.6,337.9z"/>
	<path style="fill:#F1543F;" d="M152.9,337.9h84.2l-25.3,62.6c-2,5-7,8.4-12.4,8.4h-51c-6.8,0-11-5.4-9.4-12L152.9,337.9z"/>
</g>
<path style="fill:#FF7058;" d="M250.6,129c-69,0-127.6,36.4-148.7,87.1l-16,2.1c-4.3,0.6-7.6,4.3-7.6,8.7v61.6
	c0,4.4,3.2,8.1,7.6,8.7l16,2.1c21.1,50.6,79.7,87.1,148.7,87.1c86.8,0,157.2-57.6,157.2-128.7S337.4,129,250.6,129z"/>
<circle style="fill:#FFFFFF;" cx="147.2" cy="226.9" r="17.6"/>
<g>
	<circle style="fill:#324A5E;" cx="143.8" cy="225.2" r="8.8"/>
	<path style="fill:#324A5E;" d="M300.8,174.4c-0.6,0-1.2-0.1-1.8-0.2c-33.4-9.2-68.8-9.2-102.2,0c-3.6,1-7.4-1.2-8.4-4.8
		s1.1-7.4,4.8-8.4c35.8-9.8,73.6-9.8,109.4,0c3.6,1,5.8,4.8,4.8,8.4C306.6,172.4,303.8,174.4,300.8,174.4z"/>
</g>
<path style="fill:#FFFFFF;" d="M300.5,127.4c0,11.5-3.6,22-9.8,30.7c-3.2,4.5-7.1,8.5-11.6,11.7c-7.8-1.3-15.7-2.1-23.7-2.4
	c-2.5,0.5-5,0.7-7.6,0.7s-5.1-0.2-7.5-0.7c-7.9,0.3-15.8,1.1-23.7,2.3c-4.4-3.3-8.3-7.2-11.6-11.7c-6.2-8.6-9.8-19.2-9.8-30.7
	c0-29.1,23.5-52.6,52.6-52.6C277,74.8,300.5,98.4,300.5,127.4z"/>
<path style="fill:#E6E9EE;" d="M288.6,127.4c0,11-4.3,21-11.4,28.3c-5.7,6-13.3,10.2-21.7,11.7c-2.5,0.5-5,0.7-7.6,0.7
	s-5.1-0.2-7.5-0.7c-8.5-1.6-16-5.8-21.7-11.7c-7.1-7.3-11.4-17.3-11.4-28.3c0-22.5,18.2-40.7,40.7-40.7
	C270.4,86.7,288.6,105,288.6,127.4z"/>
<path style="fill:#FFFFFF;" d="M262.9,127.9c-2.5-2.1-6.5-3.9-11.9-5.1h-0.2v-13.2c3.6,0.5,6.9,1.9,10,4.1l4.6-6.5
	c-4.6-3.1-9.5-4.9-14.6-5.3v-3.6h-4.5v3.5c-4.6,0.2-8.2,1.6-11,4.2s-4.3,5.9-4.3,9.9c0,4.1,1.2,7.1,3.7,9.2c2.5,2.1,6.3,3.7,11.6,5
	v13.6c-4.2-0.7-8.2-2.7-12.2-6.1l-5.1,6.1c5.1,4.4,10.9,7,17.3,7.6v5.1h4.5v-5c4.8-0.2,8.6-1.6,11.5-4.2c2.9-2.6,4.4-5.9,4.4-10
	C266.7,133.2,265.4,130.1,262.9,127.9z M241,118.9c-0.9-0.9-1.4-2.1-1.4-3.7s0.6-2.9,1.8-3.9s2.8-1.7,5-1.8v12
	C243.7,120.7,242,119.8,241,118.9z M256.2,142c-1.3,1.1-3.1,1.7-5.3,2v-12.6c2.8,0.8,4.7,1.7,5.8,2.7c1,0.9,1.5,2.3,1.5,3.9
	C258.1,139.6,257.5,140.9,256.2,142z"/>
<g>
</g>
<g>
</g>
<g>
</g>
<g>
</g>
<g>
</g>
<g>
</g>
<g>
</g>
<g>
</g>
<g>
</g>
<g>
</g>
<g>
</g>
<g>
</g>
<g>
</g>
<g>
</g>
<g>
</g>
</svg>
